# AST/ASF file generated using VICON BodyLanguage
# -----------------------------------------------
:version 1.10
:name VICON
:units
  mass 1.0
  length 0.45
  angle deg
:documentation
   .ast/.asf automatically generated from VICON data using
   VICON BodyBuilder and BodyLanguage model FoxedUp or BRILLIANT.MOD
:root
   order TX TY TZ RX RY RZ
   axis XYZ
   position 0 0 0  
   orientation 0 0 0 
:bonedata
  begin
     id 1 
     name lhipjoint
     direction 0.624716 -0.669793 0.401383 
     length 2.38238 
     axis 0 0 0  XYZ
  end
  begin
     id 2 
     name lfemur
     direction 0.34202 -0.939693 0  
     length 6.4574  
     axis 0 0 20  XYZ
    dof rx ry rz
    limits (-160.0 20.0)
           (-70.0 70.0)
           (-60.0 70.0)
  end
  begin
     id 3 
     name ltibia
     direction 0.34202 -0.939693 0   
     length 7.68739   
     axis 0 0 20   XYZ
    dof rx
    limits (-10.0 170.0)
  end
  begin
     id 4 
     name lfoot
     direction 0.0681309 -0.187188 0.979959   
     length 2.46615   
     axis -90 7.62852e-016 20   XYZ
    dof rx rz
    limits (-45.0 90.0)
           (-70.0 20.0)
  end
  begin
     id 5 
     name ltoes
     direction 1.53566e-011 -4.21819e-011 1   
     length 1.2376   
     axis -90 7.62852e-016 20   XYZ
    dof rx
    limits (-90.0 20.0)
  end
  begin
     id 6 
     name rhipjoint
     direction -0.644473 -0.655875 0.393043   
     length 2.43293  
     axis 0 0 0  XYZ 
  end
  begin
     id 7 
     name rfemur
     direction -0.34202 -0.939693 0   
     length 6.7025   
     axis 0 0 -20   XYZ
    dof rx ry rz
    limits (-160.0 20.0)
           (-70.0 70.0)
           (-70.0 60.0)
  end
  begin
     id 8 
     name rtibia
     direction -0.34202 -0.939693 0   
     length 7.80547   
     axis 0 0 -20   XYZ
    dof rx
    limits (-10.0 170.0)
 end
 begin
     id 9 
     name rfoot
     direction -0.0756734 -0.207911 0.975216   
     length 2.40315  
     axis -90 -7.62852e-016 -20   XYZ
    dof rx rz
    limits (-45.0 90.0)
           (-20.0 70.0)
  end
  begin
     id 10 
     name rtoes
     direction -1.5353e-011 -4.21879e-011 1   
     length 1.20477   
     axis -90 -7.62852e-016 -20   XYZ
    dof rx
    limits (-90.0 20.0)
  end
  begin
     id 11 
     name lowerback
     direction 0.0160353 0.987463 -0.157037   
     length 2.18572   
     axis 0 0 0   XYZ
    dof rx ry rz
    limits (-20.0 45.0)
           (-30.0 30.0)
           (-30.0 30.0)
  end
  begin
     id 12 
     name upperback
     direction -0.00499661 0.999756 0.0215076   
     length 2.18016   
     axis 0 0 0   XYZ
    dof rx ry rz
    limits (-20.0 45.0)
           (-30.0 30.0)
           (-30.0 30.0)
  end
  begin
     id 13 
     name thorax
     direction -0.00921346 0.995333 0.0960619   
     length 2.24923   
     axis 0 0 0   XYZ
    dof rx ry rz
    limits (-20.0 45.0)
           (-30.0 30.0)
           (-30.0 30.0)
  end
  begin
     id 14 
     name lowerneck
     direction 0.0274184 0.991181 0.12965   
     length 1.70911   
     axis 0 0 0   XYZ
    dof rx ry rz
    limits (-20.0 45.0)
           (-30.0 30.0)
           (-30.0 30.0)
  end
  begin
     id 15 
     name upperneck
     direction 0.0015627 0.999959 -0.00893559   
     length 1.69312   
     axis 0 0 0   XYZ
    dof rx ry rz
    limits (-20.0 45.0)
           (-30.0 30.0)
           (-30.0 30.0)
  end
  begin
     id 16
     name head
     direction -0.00230242 0.999856 -0.0168327  
     length 1.80241  
     axis 0 0 0   XYZ
    dof rx ry rz
    limits (-20.0 45.0)
           (-30.0 30.0)
           (-30.0 30.0)
  end
  begin
     id 17 
     name lclavicle
     direction 0.955523 0.290741 -0.0494489  
     length 3.84275  
     axis 0 0 0   XYZ
    dof ry rz
    limits (-20.0 10.0)
           (0.0 20.0)
  end
  begin
     id 18 
     name lhumerus
     direction 1 -4.48967e-011 -3.18382e-028   
     length 5.17714   
     axis 180 -30 -90   XYZ
    dof rx ry rz
    limits (-60.0 90.0)
           (-90.0 90.0)
           (-90.0 90.0)
  end
  begin
     id 19
     name lradius
     direction 1 -4.48968e-011 -2.22911e-027   
     length 3.43679   
     axis 180 -30 -90   XYZ
    dof rx
    limits (-10.0 170.0)
  end
  begin
     id 20
     name lwrist
     direction 1 -4.48951e-011 -6.32245e-027   
     length 1.7184   
     axis 3.57107e-015 90 90   XYZ
    dof ry
    limits (-180.0 0.0)
 end
  begin
     id 21 
     name lhand
     direction 1 -4.48924e-011 -1.26431e-026   
     length 0.573117   
     axis 8.06912e-015 90 90   XYZ
    dof rx rz
    limits (-90.0 90.0)
           (-45.0 45.0)
  end
  begin
     id 22 
     name lfingers
     direction 1 -4.49001e-011 -2.52965e-026   
     length 0.462062   
     axis 1.61381e-014 90 90   XYZ
    dof rx
    limits (0.0 90.0)
  end
  begin
     id 23
     name lthumb
     direction 0.707107 -6.35008e-011 0.707107   
     length 0.663431   
     axis -90 45 -1.62303e-014   XYZ
    dof rx rz
    limits (-45.0 45.0)
           (-45.0 45.0)
  end
  begin
     id 24 
     name rclavicle
     direction -0.963917 0.256881 -0.0698287   
     length 3.73057  
     axis 0 0 0   XYZ 
    dof ry rz
    limits (-10.0 20.0)
           (-20.0 0.0)
  end
  begin
     id 25 
     name rhumerus
     direction -1 -4.48962e-011 -2.73982e-027  
     length 5.23908   
     axis 180 30 90   XYZ
    dof rx ry rz
    limits (-90.0 60.0)
           (-90.0 90.0)
           (-90.0 90.0)
  end
  begin
     id 26 
     name rradius
     direction -1 -4.48968e-011 -4.33218e-027   
     length 3.46485   
     axis 180 30 90   XYZ
    dof rx
    limits (-10.0 170.0)
  end
  begin
     id 27 
     name rwrist
     direction -1 -4.48989e-011 -6.32372e-027   
     length 1.73243   
     axis 3.57107e-015 -90 -90   XYZ
    dof ry
    limits (-180.0 0.0)
  end
  begin
     id 28
     name rhand
     direction -1 -4.48948e-011 -1.26448e-026   
     length 0.608752   
     axis 8.06912e-015 -90 -90   XYZ
    dof rx rz
    limits (-90.0 90.0)
           (-45.0 45.0)
  end
  begin
     id 29
     name rfingers
     direction -1 -4.48962e-011 -2.52913e-026   
     length 0.490792   
     axis 1.61381e-014 -90 -90   XYZ
    dof rx
    limits (0.0 90.0)
  end
  begin
     id 30
     name rthumb
     direction -0.707107 -6.34878e-011 0.707107   
     length 0.704682   
     axis -90 -45 1.62303e-014   XYZ
    dof rx rz
    limits (-45.0 45.0)
           (-45.0 45.0)
  end
:hierarchy
  begin
    root lhipjoint rhipjoint lowerback
    lhipjoint lfemur
    lfemur ltibia
    ltibia lfoot
    lfoot ltoes
    rhipjoint rfemur
    rfemur rtibia
    rtibia rfoot
    rfoot rtoes
    lowerback upperback
    upperback thorax
    thorax lowerneck lclavicle rclavicle
    lowerneck upperneck
    upperneck head
    lclavicle lhumerus
    lhumerus lradius
    lradius lwrist
    lwrist lhand lthumb
    lhand lfingers
    rclavicle rhumerus
    rhumerus rradius
    rradius rwrist
    rwrist rhand rthumb
    rhand rfingers
  end

#!OML:ASF G:\JayActor3\Patient Classification 1\Patient 1\Session 6\male.ASF
:FULLY-SPECIFIED
:DEGREES
1
root 49.3786 15.9761 17.9803 177.275 -43.3706 -176.084
lowerback -0.334783 -1.08958 2.50019
upperback 2.85941 -1.56639 0.31876
thorax 3.06871 -0.744259 -1.11985
lowerneck -4.77365 0.173135 2.75393
upperneck 2.05282 0.0299012 0.458018
head 1.43918 0.0411892 -0.320017
rclavicle 2.38542e-015 1.0138e-014
rhumerus -31.5041 -0.360648 -86.3613
rradius 30.1485
rwrist -0.175629
rhand -19.224 -7.54175
rfingers 7.12502
rthumb 7.0889 -37.403
lclavicle 2.38542e-015 1.0138e-014
lhumerus -32.4089 0.169761 84.7493
lradius 31.2161
lwrist 22.4349
lhand -13.5071 6.90183
lfingers 7.12502
lthumb 12.6043 36.5016
rfemur -10.1664 0.979154 23.9732
rtibia 35.7005
rfoot -27.8446 -14.1433
rtoes 5.2763
lfemur -5.64621 10.3161 -15.2845
ltibia 27.0334
lfoot -20.5649 3.34954
ltoes -3.7812
2
root 49.3794 15.9761 17.9795 177.302 -43.3783 -176.085
lowerback -0.360904 -1.07837 2.4948
upperback 2.8552 -1.55132 0.309033
thorax 3.0795 -0.736434 -1.12694
lowerneck -4.78906 0.167757 2.77364
upperneck 2.02242 0.0208324 0.462268
head 1.43209 0.0364196 -0.322215
rclavicle 5.46161e-014 -3.97569e-016
rhumerus -31.5128 -0.406148 -86.3674
rradius 30.1276
rwrist -0.192051
rhand -19.2825 -7.39281
rfingers 7.12502
rthumb 7.03247 -37.256
lclavicle 5.46161e-014 -3.97569e-016
lhumerus -32.4174 0.118798 84.754
lradius 31.1339
lwrist 22.4132
lhand -13.3428 7.29739
lfingers 7.12502
lthumb 12.7628 36.8873
rfemur -10.1918 0.990457 23.979
rtibia 35.6979
rfoot -27.888 -14.1108
rtoes 5.40262
lfemur -5.67409 10.3283 -15.283
ltibia 27.0376
lfoot -20.5594 3.32641
ltoes -3.8994
3
root 49.378 15.9764 17.978 177.321 -43.3616 -176.088
lowerback -0.439645 -1.08551 2.50095
upperback 2.87166 -1.56398 0.313993
thorax 3.14048 -0.741755 -1.12766
lowerneck -4.84348 0.203956 2.67071
upperneck 2.0559 0.0700718 0.550978
head 1.45244 0.0622839 -0.276104
rclavicle -5.32246e-014 2.98177e-015
rhumerus -31.48 -0.41808 -86.3643
rradius 30.0682
rwrist -0.174228
rhand -19.3039 -7.30382
rfingers 7.12502
rthumb 7.01178 -37.1677
lclavicle -5.32246e-014 2.98177e-015
lhumerus -32.4352 0.2222 84.7403
lradius 31.0418
lwrist 22.325
lhand -13.2874 7.28661
lfingers 7.12502
lthumb 12.8162 36.8732
rfemur -10.2048 1.00703 23.9786
rtibia 35.7051
rfoot -27.9059 -14.0945
rtoes 5.45815
lfemur -5.67729 10.3682 -15.2811
ltibia 27.0298
lfoot -20.5563 3.31936
ltoes -3.89417
4
root 49.3759 15.9763 17.9764 177.344 -43.3624 -176.093
lowerback -0.490477 -1.08084 2.5135
upperback 2.86627 -1.55871 0.306641
thorax 3.1633 -0.738171 -1.14315
lowerneck -4.85691 0.210458 2.63706
upperneck 2.05031 0.0785517 0.598139
head 1.45289 0.0669843 -0.255537
rclavicle 1.22998e-014 -2.18663e-015
rhumerus -31.5019 -0.449328 -86.3724
rradius 30.06
rwrist -0.143492
rhand -19.3671 -7.44181
rfingers 7.12502
rthumb 6.95082 -37.3077
lclavicle 1.22998e-014 -2.18663e-015
lhumerus -32.387 -0.164252 84.8586
lradius 30.7357
lwrist 22.6621
lhand -13.5431 7.00552
lfingers 7.12502
lthumb 12.5697 36.6074
rfemur -10.218 1.00649 23.9693
rtibia 35.7116
rfoot -27.9147 -14.0724
rtoes 5.50048
lfemur -5.68704 10.3367 -15.2932
ltibia 27.0243
lfoot -20.5518 3.3167
ltoes -3.84255
5
root 49.3746 15.9764 17.9745 177.367 -43.3659 -176.097
lowerback -0.553326 -1.08257 2.51592
upperback 2.86969 -1.56272 0.304799
thorax 3.20206 -0.739383 -1.148
lowerneck -4.87589 0.219241 2.60229
upperneck 2.05207 0.0907375 0.626609
head 1.45676 0.0733531 -0.240521
rclavicle -3.60297e-014 1.78906e-015
rhumerus -31.5036 -0.472412 -86.3768
rradius 30.033
rwrist -0.122091
rhand -19.3582 -7.44759
rfingers 7.12502
rthumb 6.95942 -37.3132
lclavicle -3.60297e-014 1.78906e-015
lhumerus -32.3466 -0.483049 84.9614
lradius 30.47
lwrist 22.9442
lhand -13.6466 6.92158
lfingers 7.12502
lthumb 12.4698 36.5296
rfemur -10.234 1.01055 23.9683
rtibia 35.7185
rfoot -27.9347 -14.0638
rtoes 5.52263
lfemur -5.69869 10.3449 -15.2956
ltibia 27.0184
lfoot -20.546 3.30024
ltoes -3.84524
6
root 49.3733 15.9765 17.9726 177.393 -43.3701 -176.102
lowerback -0.618141 -1.08547 2.51553
upperback 2.87239 -1.5683 0.30468
thorax 3.24125 -0.741462 -1.14959
lowerneck -4.89036 0.224062 2.57586
upperneck 2.05602 0.0980602 0.636113
head 1.46055 0.0770784 -0.232938
rclavicle -2.98177e-014 1.59028e-015
rhumerus -31.5074 -0.492862 -86.3787
rradius 30.007
rwrist -0.0941281
rhand -19.3155 -7.45681
rfingers 7.12502
rthumb 7.0006 -37.321
lclavicle -2.98177e-014 1.59028e-015
lhumerus -32.304 -0.844567 85.0807
lradius 30.1854
lwrist 23.2737
lhand -13.7643 6.80607
lfingers 7.12502
lthumb 12.3564 36.4209
rfemur -10.2516 1.01318 23.966
rtibia 35.7254
rfoot -27.95 -14.063
rtoes 5.51634
lfemur -5.7124 10.3522 -15.3002
ltibia 27.0135
lfoot -20.5383 3.28721
ltoes -3.84396
7
root 49.3722 15.9768 17.9707 177.424 -43.3769 -176.109
lowerback -0.68237 -1.09023 2.51114
upperback 2.87238 -1.5762 0.306714
thorax 3.27737 -0.744868 -1.14677
lowerneck -4.89526 0.225955 2.55431
upperneck 2.05266 0.102152 0.631902
head 1.46033 0.078897 -0.230508
rclavicle 1.44939e-013 -1.63003e-014
rhumerus -31.5121 -0.510178 -86.3774
rradius 29.9793
rwrist -0.0611513
rhand -19.2597 -7.45748
rfingers 7.12502
rthumb 7.05445 -37.3199
lclavicle 1.44939e-013 -1.63003e-014
lhumerus -32.2726 -1.17172 85.1928
lradius 29.9195
lwrist 23.58
lhand -13.8658 6.71397
lfingers 7.12502
lthumb 12.2585 36.3347
rfemur -10.2748 1.01279 23.9631
rtibia 35.73
rfoot -27.9591 -14.0694
rtoes 5.4911
lfemur -5.7346 10.3572 -15.3073
ltibia 27.0125
lfoot -20.5294 3.2741
ltoes -3.8437
8
root 49.3714 15.9771 17.9692 177.459 -43.3796 -176.116
lowerback -0.743467 -1.09553 2.50489
upperback 2.87081 -1.58472 0.311714
thorax 3.31023 -0.748734 -1.13981
lowerneck -4.90141 0.225966 2.53937
upperneck 2.05317 0.104002 0.60965
head 1.4616 0.0794084 -0.234873
rclavicle 9.24597e-014 -3.57812e-015
rhumerus -31.5166 -0.517857 -86.3733
rradius 29.9521
rwrist -0.0313614
rhand -19.2056 -7.45526
rfingers 7.12502
rthumb 7.10672 -37.3159
lclavicle 9.24597e-014 -3.57812e-015
lhumerus -32.2618 -1.38956 85.2767
lradius 29.6984
lwrist 23.794
lhand -13.9251 6.6734
lfingers 7.12502
lthumb 12.2013 36.2975
rfemur -10.3029 1.01398 23.9589
rtibia 35.7345
rfoot -27.9649 -14.0725
rtoes 5.47483
lfemur -5.76111 10.3641 -15.3166
ltibia 27.0129
lfoot -20.5219 3.26129
ltoes -3.80873
9
root 49.3706 15.9775 17.9682 177.496 -43.3756 -176.125
lowerback -0.799091 -1.09625 2.50217
upperback 2.86869 -1.58698 0.314971
thorax 3.33952 -0.74942 -1.13627
lowerneck -4.9092 0.225244 2.52825
upperneck 2.04942 0.104458 0.590076
head 1.4618 0.0792268 -0.23908
rclavicle 9.78393e-014 -1.03368e-014
rhumerus -31.5208 -0.534794 -86.3662
rradius 29.9235
rwrist 0.00157109
rhand -19.1681 -7.43752
rfingers 7.12502
rthumb 7.14291 -37.297
lclavicle 9.78393e-014 -1.03368e-014
lhumerus -32.2628 -1.50803 85.3279
lradius 29.5176
lwrist 23.9115
lhand -13.9494 6.67408
lfingers 7.12502
lthumb 12.1779 36.2996
rfemur -10.3349 1.01761 23.9527
rtibia 35.7395
rfoot -27.9614 -14.0781
rtoes 5.45469
lfemur -5.78917 10.3601 -15.3299
ltibia 27.0132
lfoot -20.5151 3.25788
ltoes -3.72893
10
root 49.3701 15.978 17.9676 177.533 -43.3633 -176.135
lowerback -0.843735 -1.09207 2.50272
upperback 2.86432 -1.58236 0.31649
thorax 3.36042 -0.746686 -1.13582
lowerneck -4.92079 0.221921 2.52627
upperneck 2.04963 0.100919 0.564184
head 1.46393 0.0770588 -0.246913
rclavicle 5.01559e-014 -1.09332e-014
rhumerus -31.5286 -0.557395 -86.3588
rradius 29.8975
rwrist 0.0270924
rhand -19.1683 -7.43074
rfingers 7.12502
rthumb 7.14269 -37.2902
lclavicle 5.01559e-014 -1.09332e-014
lhumerus -32.2857 -1.48476 85.3332
lradius 29.3916
lwrist 23.8909
lhand -13.9454 6.69104
lfingers 7.12502
lthumb 12.1818 36.3163
rfemur -10.3694 1.02467 23.9452
rtibia 35.7459
rfoot -27.9559 -14.0718
rtoes 5.4622
lfemur -5.81638 10.3589 -15.344
ltibia 27.0125
lfoot -20.5084 3.25759
ltoes -3.62746
